<?xml version="1.0" encoding="utf-8"?>
<!DOCTYPE svg PUBLIC "-//W3C//DTD SVG 1.1//EN" "http://www.w3.org/Graphics/SVG/1.1/DTD/svg11.dtd">
<svg version="1.1" xmlns="http://www.w3.org/2000/svg" xmlns:xlink="http://www.w3.org/1999/xlink" x="0px" y="0px" viewBox="0 0 256 256" enable-background="new 0 0 256 256" xml:space="preserve">
<g><g><g><path fill="#000000" d="M116.7,10.4c-26.7,2.7-51.1,14-70.2,32.5c-10.7,10.3-18,20.2-24.3,33.2c-7.7,15.7-11.4,30.5-12,48c-0.9,26.8,7.4,53.4,23.7,75c6,8,15.2,17.2,22.9,22.9c3.3,2.4,4.3,3.5,5.5,5.7c6.9,13,25.6,20.5,44.3,17.7c3.5-0.5,5.3-0.6,7.6-0.2c8.8,1.3,23.2,1,33.5-0.7c37-6.3,69.2-30.2,86-63.9c20-40.2,15.7-87.4-11.3-123.3c-18.7-24.9-46.2-41.3-77.7-46.1C138.8,10.2,122.6,9.8,116.7,10.4z M142.3,20.8c19.3,2.5,37.5,10.3,53.1,22.6c4.3,3.4,13.7,12.8,17.2,17.2c12.3,15.5,20,33.7,22.7,53.4c1,7.4,1,20.8,0,28.1c-2.7,19.7-10.5,37.8-22.7,53.4c-3.4,4.3-12.8,13.7-17.2,17.2c-18.2,14.3-39.2,22.2-62.9,23.5l-4.6,0.3l2.6-2.8c3.1-3.4,5-6.5,6.3-10.5c0.9-2.7,0.9-4.2,0.9-24.3v-21.4h7.6c5.6,0,8.1-0.2,9.2-0.6c1.6-0.7,3-2.7,3-4.4s-1.4-3.7-3-4.4c-1.2-0.5-3.6-0.6-9.2-0.6h-7.6v-4.1c0-3.5-0.2-4.4-1.3-6.8c-1.6-3.4-5.1-6.7-8.2-7.8c-3-1-7.4-0.9-10.3,0.1c-5.9,2.2-9.2,7.1-9.6,14.3l-0.2,4.1l-3.1,0.2c-3.8,0.2-5.5,1.2-6.1,3.8c-1,3.7,1.8,6.3,6.9,6.3h2.5v4.8v4.8h-6.8c-3.8,0-8.7,0.3-11,0.7c-14.8,2.4-25.9,10.4-30,21.5l-1,2.7l-5.9-5.6c-18.8-18.1-29.7-39.8-33.1-65.9c-0.7-5.6-0.7-19.1,0-25c2.4-19.1,9.7-37.3,21.3-52.7c4.4-5.9,15.1-16.6,21-21C85.9,24.4,113.8,17.1,142.3,20.8z M126.4,159l1.6,1.6l-0.1,29.6l-0.1,29.6l-1.1,2.3c-1.6,3.2-6.1,7.5-10,9.5c-12.7,6.6-30.2,5.4-40.7-2.9c-4.8-3.8-7.4-8.9-6.9-13.7c0.8-7.4,8.5-14.2,19.5-17.2c3.4-0.9,4.7-1,15.1-0.9l11.4,0.1l1.5-1.3l1.5-1.3l0.2-17c0.1-9.3,0.4-17.3,0.6-17.8c0.6-1.2,2.5-2.1,4.4-2.2C124.5,157.5,125.3,157.9,126.4,159z"/><path fill="#000000" d="M80.5,79.1c-4.1,0.9-8.4,4.4-10.3,8.5c-1.6,3.5-1.5,8.8,0.2,12.3c1.4,2.9,3.8,5.3,6.9,6.9c1.7,0.9,2.7,1.1,6.4,1.1c3.7,0,4.7-0.2,6.4-1.1c3-1.6,5.5-4.1,6.9-6.9c1.8-3.5,1.8-8.8,0.2-12.4c-1.2-2.8-4.7-6.3-7.6-7.5C87.2,78.9,83.2,78.6,80.5,79.1z M86.6,89.7c1.8,1.4,2.4,3.7,1.5,5.7c-0.7,1.7-2.7,3.1-4.4,3.1c-2.9,0-5.4-3.2-4.8-6C79.6,89.3,84,87.7,86.6,89.7z"/><path fill="#000000" d="M169.1,79.1c-4.1,0.9-8.4,4.4-10.3,8.5c-1.6,3.5-1.5,8.8,0.2,12.3c1.4,2.9,3.8,5.3,6.9,6.9c1.7,0.9,2.7,1.1,6.4,1.1c3.7,0,4.7-0.2,6.4-1.1c3-1.6,5.5-4.1,6.9-6.9c1.8-3.5,1.8-8.8,0.2-12.4c-1.2-2.8-4.7-6.3-7.6-7.5C175.7,78.9,171.7,78.6,169.1,79.1z M175.1,89.7c1.8,1.4,2.4,3.7,1.5,5.7c-0.7,1.7-2.7,3.1-4.4,3.1c-2.9,0-5.3-3.1-4.8-6C168.1,89.3,172.5,87.7,175.1,89.7z"/></g></g></g>
</svg>