<?xml version="1.0" standalone="no"?>
<!DOCTYPE svg PUBLIC "-//W3C//DTD SVG 20010904//EN"
 "http://www.w3.org/TR/2001/REC-SVG-20010904/DTD/svg10.dtd">
<svg version="1.0" xmlns="http://www.w3.org/2000/svg"
 width="616.000000pt" height="640.000000pt" viewBox="0 0 616.000000 640.000000"
 preserveAspectRatio="xMidYMid meet">
<metadata>
Created by potrace 1.16, written by Peter Selinger 2001-2019
</metadata>
<g transform="translate(0.000000,640.000000) scale(0.100000,-0.100000)"
fill="#000000" stroke="none">
<path d="M1480 5949 c-60 -38 -108 -74 -70 -54 38 21 140 87 140 91 0 7 -3 5
-70 -37z"/>
<path d="M1210 5765 c-697 -535 -1130 -1332 -1200 -2209 -61 -772 181 -1555
670 -2166 109 -136 337 -363 470 -469 246 -196 545 -368 817 -472 59 -22 63
-26 82 -77 46 -119 162 -253 268 -310 213 -113 476 -71 761 121 l84 56 136 11
c163 13 242 23 382 51 474 92 941 309 1330 620 134 107 361 334 470 469 387
484 620 1073 670 1694 74 931 -296 1871 -982 2496 -110 100 -278 237 -278 226
0 -2 24 -23 53 -46 188 -149 380 -347 506 -520 38 -52 76 -102 84 -111 32 -36
99 -142 118 -186 11 -27 36 -71 55 -100 19 -28 34 -55 34 -60 0 -5 22 -54 49
-108 61 -125 108 -241 125 -314 8 -31 30 -114 50 -186 60 -215 87 -429 87
-690 -1 -274 -26 -496 -77 -680 -34 -120 -51 -181 -64 -235 -7 -25 -18 -58
-25 -75 -8 -16 -24 -55 -35 -85 -20 -51 -89 -189 -100 -200 -3 -3 -18 -30 -34
-60 -86 -164 -110 -207 -127 -222 -10 -10 -38 -48 -62 -85 -82 -126 -224 -303
-243 -303 -6 0 -40 -32 -75 -71 -146 -163 -366 -366 -464 -429 -33 -21 -80
-53 -104 -71 -80 -57 -319 -189 -406 -224 -47 -19 -98 -41 -114 -49 -15 -8
-50 -23 -77 -34 l-49 -18 -3 82 c-3 93 8 170 43 289 30 106 48 148 148 355 96
199 127 278 127 321 0 19 14 48 39 82 69 92 87 185 52 262 -60 134 -247 153
-380 39 -37 -32 -45 -35 -66 -26 -35 16 -44 34 -154 310 -55 139 -106 262
-112 273 -16 31 -121 76 -234 100 -73 16 -108 29 -127 48 -26 23 -28 31 -29
105 0 45 -4 99 -8 121 -6 32 -8 16 -12 -74 -6 -149 0 -144 -201 -159 -212 -17
-215 -17 -234 13 -13 21 -16 52 -15 176 0 84 -1 150 -3 148 -2 -2 -9 -89 -16
-193 -6 -105 -15 -198 -21 -207 -5 -9 -46 -46 -91 -82 -145 -114 -265 -251
-368 -422 -72 -120 -105 -195 -149 -341 -22 -71 -58 -174 -81 -229 -22 -55
-45 -116 -49 -135 -5 -19 -25 -89 -46 -155 -39 -124 -150 -499 -163 -547 l-7
-28 -45 29 c-25 16 -88 54 -140 85 -52 31 -120 75 -150 96 -30 22 -59 40 -64
40 -34 0 -282 232 -626 586 -16 17 -30 36 -30 42 0 10 -50 75 -104 132 -12 14
-40 52 -62 85 -21 33 -42 61 -46 63 -5 2 -29 44 -54 93 -26 50 -52 96 -59 102
-6 7 -25 42 -41 77 -16 36 -38 79 -50 97 -11 17 -31 60 -43 95 -13 34 -27 71
-32 80 -20 40 -114 388 -138 518 -56 296 -53 662 10 1000 20 107 82 343 121
460 30 90 161 367 203 430 19 29 35 59 35 66 0 14 84 146 116 182 8 10 51 67
95 127 88 121 290 343 354 389 22 16 45 35 50 42 6 7 45 40 88 73 66 53 86 71
75 71 -2 0 -41 -30 -88 -65z m2265 -3049 c33 -9 87 -30 121 -45 51 -24 65 -36
82 -72 23 -47 100 -246 133 -342 11 -32 38 -104 60 -160 39 -97 41 -106 36
-182 -9 -144 -84 -320 -136 -320 -24 0 -24 0 -23 125 0 69 -4 155 -9 193 -10
67 -75 251 -124 348 -25 47 -93 149 -100 149 -5 0 14 -42 48 -107 40 -76 104
-242 123 -314 22 -87 15 -241 -15 -329 -32 -91 -87 -179 -117 -186 -14 -4 -27
-4 -30 -1 -3 3 -9 83 -14 179 -17 335 -75 543 -180 643 l-42 40 25 -41 c96
-155 130 -293 131 -524 1 -180 -15 -262 -70 -373 -49 -97 -91 -127 -179 -127
-67 0 -108 19 -124 57 -31 75 -41 288 -19 395 15 71 6 92 -44 96 -65 6 -82
-43 -94 -268 -5 -89 -3 -134 10 -200 17 -85 55 -166 82 -177 20 -8 126 -157
161 -228 73 -146 70 -369 -8 -481 -50 -73 -189 -167 -309 -209 -135 -46 -174
-55 -251 -55 -85 0 -181 29 -249 74 -19 13 -42 28 -51 32 -30 17 -125 132
-152 185 -15 30 -36 88 -47 129 -23 87 -42 300 -35 392 14 185 21 240 60 503
21 140 71 362 100 442 12 34 41 93 63 131 96 162 225 244 492 313 58 15 98 28
90 28 -29 1 -147 -29 -272 -71 -70 -23 -130 -39 -134 -35 -20 20 75 153 154
216 98 77 359 132 526 111 42 -5 104 -20 136 -34 79 -31 65 -11 -18 26 -44 20
-97 34 -158 41 -51 7 -95 15 -99 18 -3 4 27 12 67 19 40 7 78 14 83 16 25 10
266 -6 320 -20z m821 -638 c43 -29 74 -86 74 -133 0 -22 -12 -60 -31 -95 -26
-50 -168 -230 -291 -369 -39 -45 -74 -112 -144 -276 -71 -165 -212 -351 -344
-453 -34 -26 -95 -45 -120 -37 -25 8 -83 80 -100 125 -7 19 -18 41 -23 47 -16
21 2 97 34 148 62 98 204 229 337 310 155 95 231 235 272 502 17 109 23 132
48 162 75 93 207 124 288 69z"/>
<path d="M2951 2449 c-30 -5 -57 -12 -60 -15 -3 -3 19 -2 49 3 30 4 82 7 115
7 45 -1 52 1 30 6 -39 10 -68 10 -134 -1z"/>
<path d="M2034 5089 c-51 -15 -126 -70 -166 -124 -73 -96 -108 -241 -89 -364
14 -91 49 -181 70 -181 31 -1 516 32 538 36 46 8 77 193 54 316 -44 224 -230
369 -407 317z"/>
<path d="M3988 5085 c-64 -21 -156 -107 -191 -179 -44 -90 -60 -169 -54 -266
7 -106 30 -179 60 -184 12 -2 141 -12 286 -21 299 -20 270 -27 301 73 69 222
-9 463 -180 556 -64 35 -152 43 -222 21z"/>
<path d="M3006 3969 c-58 -14 -99 -43 -125 -90 -21 -36 -25 -63 -33 -188 -5
-80 -7 -166 -5 -191 3 -36 4 -32 5 20 5 154 23 295 43 338 36 74 130 112 228
91 61 -13 104 -46 134 -103 19 -37 22 -62 28 -281 4 -132 7 -286 8 -342 1 -78
4 -103 14 -103 7 0 50 18 94 39 118 57 189 134 195 213 l3 33 -152 3 -153 3 0
202 c0 174 -3 208 -19 242 -26 57 -79 101 -141 114 -58 13 -70 13 -124 0z"/>
<path d="M2565 3400 c-18 -29 41 -139 99 -183 33 -26 156 -91 161 -85 1 2 6
65 10 141 l7 137 -136 0 c-78 0 -137 -4 -141 -10z"/>
</g>
</svg>
